Coordinates
version=1
nRows=17
nColumns=38
inDegrees=no

Units are S.I. units (second, meters, Newtons, ...)
If the header above contains a line with 'inDegrees', this indicates whether rotational values are in degrees (yes) or radians (no).

endheader
time	pelvis_tilt	pelvis_list	pelvis_rotation	pelvis_tx	pelvis_ty	pelvis_tz	hip_flexion_r	hip_adduction_r	hip_rotation_r	knee_angle_r	ankle_angle_r	subtalar_angle_r	mtp_angle_r	hip_flexion_l	hip_adduction_l	hip_rotation_l	knee_angle_l	ankle_angle_l	subtalar_angle_l	mtp_angle_l	lumbar_extension	lumbar_bending	lumbar_rotation	arm_flex_r	arm_add_r	arm_rot_r	elbow_flex_r	pro_sup_r	wrist_flex_r	wrist_dev_r	arm_flex_l	arm_add_l	arm_rot_l	elbow_flex_l	pro_sup_l	wrist_flex_l	wrist_dev_l
0	2.85455	1.26482	-1.30342	0.749699	-0.422367	0.957281	-0.393538	0.139816	0.00822285	0.153781	-0.255356	0	0	0.213173	-0.207448	-0.129998	1.1644	-0.146542	0	0	-0.536314	0.123557	0.134469	-0.191065	-0.604671	0.641995	0.918741	0.669178	0	0	-0.116165	-0.341089	0.4125	0.720263	1.09412	0	0
0.01	2.8498	1.26661	-1.29861	0.749892	-0.414366	0.956282	-0.406396	0.141553	0.0174208	0.139351	-0.261244	0	0	0.230525	-0.220481	-0.165462	1.12305	-0.16206	0	0	-0.535399	0.12474	0.133266	-0.182156	-0.611507	0.660221	0.922072	0.642201	0	0	-0.115391	-0.345572	0.421092	0.726449	1.08097	0	0
0.02	2.85051	1.26746	-1.29994	0.750207	-0.405857	0.9555	-0.419643	0.141508	0.021242	0.129637	-0.261063	0	0	0.240345	-0.229497	-0.200903	1.07711	-0.175129	0	0	-0.534679	0.124102	0.133453	-0.176884	-0.615344	0.67262	0.9234	0.626305	0	0	-0.113938	-0.348518	0.427901	0.72891	1.07246	0	0
0.03	2.85825	1.26736	-1.30876	0.750568	-0.397291	0.955027	-0.433713	0.138973	0.0236994	0.122747	-0.261024	0	0	0.24342	-0.235284	-0.239318	1.02653	-0.187099	0	0	-0.535814	0.121201	0.133591	-0.171474	-0.617309	0.683142	0.92297	0.614256	0	0	-0.111101	-0.35098	0.435069	0.728887	1.06523	0	0
0.04	2.86669	1.26716	-1.31708	0.750798	-0.388708	0.954507	-0.447623	0.136503	0.0249567	0.117415	-0.260426	0	0	0.24356	-0.236388	-0.271235	0.972905	-0.193785	0	0	-0.537234	0.118526	0.132727	-0.166588	-0.618373	0.691801	0.921901	0.604806	0	0	-0.108093	-0.35381	0.44281	0.728996	1.05863	0	0
0.05	2.87208	1.26749	-1.32073	0.750691	-0.380073	0.953697	-0.460451	0.13484	0.0242645	0.113757	-0.25818	0	0	0.243495	-0.234301	-0.295899	0.917991	-0.192924	0	0	-0.538005	0.117431	0.131111	-0.16386	-0.619375	0.696624	0.921768	0.599192	0	0	-0.106208	-0.356209	0.448218	0.730779	1.05394	0	0
0.06	2.87348	1.26857	-1.31973	0.750378	-0.371301	0.952565	-0.472111	0.133873	0.022962	0.110806	-0.254044	0	0	0.243418	-0.230068	-0.31421	0.861878	-0.188516	0	0	-0.537598	0.11782	0.128994	-0.162105	-0.620684	0.699822	0.922341	0.595071	0	0	-0.105679	-0.358676	0.452814	0.733593	1.04972	0	0
0.07	2.87501	1.27063	-1.31844	0.749981	-0.362404	0.95129	-0.482555	0.132523	0.0202522	0.108661	-0.248377	0	0	0.241867	-0.222627	-0.327065	0.800887	-0.182381	0	0	-0.535973	0.118218	0.125937	-0.160089	-0.622007	0.703955	0.922738	0.590309	0	0	-0.10478	-0.361111	0.459014	0.735354	1.0432	0	0
0.08	2.91957	1.30401	-1.36479	0.750553	-0.352448	0.945347	-0.463805	0.0914732	-0.0300067	0.15203	-0.185645	0	0	0.26962	-0.192084	-0.334976	0.745096	-0.165102	0	0	-0.499529	0.0960386	0.118046	-0.163768	-0.616562	0.708135	0.92015	0.58699	0	0	-0.113708	-0.372774	0.466735	0.746957	1.03182	0	0
0.09	2.87631	1.28222	-1.31084	0.74858	-0.344476	0.948033	-0.493841	0.131942	0.0110407	0.109523	-0.223158	0	0	0.240079	-0.193542	-0.322029	0.663917	-0.163607	0	0	-0.523889	0.119516	0.116913	-0.156414	-0.622287	0.712988	0.918627	0.585038	0	0	-0.10064	-0.364813	0.475535	0.734189	1.02791	0	0
0.1	2.88443	1.29289	-1.30896	0.747197	-0.336189	0.946424	-0.493071	0.129828	0.00263091	0.109879	-0.227318	0	0	0.238537	-0.162523	-0.280509	0.578286	-0.154602	0	0	-0.514985	0.119329	0.107846	-0.153224	-0.61921	0.715327	0.912072	0.582936	0	0	-0.0939729	-0.363703	0.482399	0.726786	1.02452	0	0
0.11	2.88905	1.29782	-1.30775	0.746114	-0.327245	0.944988	-0.498241	0.128344	-0.00541213	0.111841	-0.223897	0	0	0.218825	-0.133493	-0.233882	0.475433	-0.144305	0	0	-0.510787	0.119743	0.102573	-0.15209	-0.618073	0.716742	0.90863	0.582218	0	0	-0.0911622	-0.363294	0.487038	0.723282	1.02183	0	0
0.12	2.87905	1.2971	-1.2983	0.745481	-0.317283	0.943202	-0.509877	0.129712	-0.00880456	0.112484	-0.221522	0	0	0.203798	-0.12894	-0.243998	0.414936	-0.132614	0	0	-0.50981	0.123304	0.104019	-0.156358	-0.621584	0.715038	0.912896	0.581226	0	0	-0.0943807	-0.363318	0.488342	0.72629	1.02011	0	0
0.13	2.87597	1.29907	-1.29342	0.744545	-0.307798	0.941611	-0.516522	0.129267	-0.0130264	0.116946	-0.217884	0	0	0.191869	-0.118904	-0.243637	0.356448	-0.125173	0	0	-0.507884	0.125302	0.102939	-0.158136	-0.623012	0.713799	0.913634	0.579291	0	0	-0.094099	-0.361991	0.490881	0.724661	1.01782	0	0
0.14	2.87051	1.30206	-1.28651	0.743637	-0.298171	0.940012	-0.520997	0.128992	-0.0167354	0.124674	-0.213148	0	0	0.182128	-0.109933	-0.243689	0.303567	-0.123517	0	0	-0.504323	0.127386	0.102018	-0.159898	-0.623775	0.71293	0.913199	0.57869	0	0	-0.0936792	-0.359812	0.493165	0.720852	1.01743	0	0
0.15	2.86416	1.30487	-1.27926	0.742842	-0.28849	0.938509	-0.523599	0.128583	-0.019235	0.134751	-0.208542	0	0	0.173429	-0.102571	-0.242669	0.258621	-0.126156	0	0	-0.500906	0.129066	0.101812	-0.162442	-0.624202	0.711485	0.912888	0.579549	0	0	-0.0928862	-0.356957	0.494044	0.716209	1.01882	0	0
0.16	2.856	1.30819	-1.27169	0.742227	-0.278567	0.937033	-0.523599	0.127553	-0.0204321	0.147189	-0.204197	0	0	0.16755	-0.0980303	-0.243416	0.228195	-0.131309	0	0	-0.496678	0.130268	0.102636	-0.165556	-0.623959	0.709191	0.912147	0.581016	0	0	-0.0930957	-0.35342	0.492707	0.710965	1.02207	0	0
